{
  "accessors": [
    {
      "bufferView": 1,
      "componentType": 5126,
      "count": 65532,
      "max": [
        0.9235248565673828,
        -0.09679655730724335,
        0.5114762783050537
      ],
      "min": [
        -0.8048005700111389,
        -1.0308259725570679,
        -0.9634686708450317
      ],
      "type": "VEC3"
    },
    {
      "bufferView": 1,
      "byteOffset": 786384,
      "componentType": 5126,
      "count": 65532,
      "max": [
        0.9999955892562866,
        0.9999690651893616,
        0.9999992847442627
      ],
      "min": [
        -0.9999955892562866,
        -0.999995768070221,
        -0.9999301433563232
      ],
      "type": "VEC3"
    },
    {
      "bufferView": 0,
      "componentType": 5125,
      "count": 354036,
      "type": "SCALAR"
    },
    {
      "bufferView": 1,
      "byteOffset": 1572768,
      "componentType": 5126,
      "count": 65532,
      "max": [
        0.9234721660614014,
        -0.13597029447555542,
        0.5598357915878296
      ],
      "min": [
        -0.9234778881072998,
        -1.0336703062057495,
        -0.9617518186569214
      ],
      "type": "VEC3"
    },
    {
      "bufferView": 1,
      "byteOffset": 2359152,
      "componentType": 5126,
      "count": 65532,
      "max": [
        0.9999409914016724,
        0.9998182058334351,
        0.9997883439064026
      ],
      "min": [
        -0.9999979138374329,
        -0.9999351501464844,
        -0.9997487664222717
      ],
      "type": "VEC3"
    },
    {
      "bufferView": 0,
      "byteOffset": 1416144,
      "componentType": 5125,
      "count": 347157,
      "type": "SCALAR"
    },
    {
      "bufferView": 1,
      "byteOffset": 3145536,
      "componentType": 5126,
      "count": 65532,
      "max": [
        0.9234079718589783,
        -0.12894321978092194,
        0.7552723288536072
      ],
      "min": [
        -0.9214873909950256,
        -1.0278313159942627,
        -0.8278052806854248
      ],
      "type": "VEC3"
    },
    {
      "bufferView": 1,
      "byteOffset": 3931920,
      "componentType": 5126,
      "count": 65532,
      "max": [
        0.9999884366989136,
        0.9999756217002869,
        0.9999521970748901
      ],
      "min": [
        -0.9999209642410278,
        -0.9999495148658752,
        -0.9993820190429688
      ],
      "type": "VEC3"
    },
    {
      "bufferView": 0,
      "byteOffset": 2804772,
      "componentType": 5125,
      "count": 346653,
      "type": "SCALAR"
    },
    {
      "bufferView": 1,
      "byteOffset": 4718304,
      "componentType": 5126,
      "count": 65532,
      "max": [
        0.9208963513374329,
        -0.11865667998790741,
        0.7552723288536072
      ],
      "min": [
        -0.9233317971229553,
        -1.0336872339248657,
        -0.9644703269004822
      ],
      "type": "VEC3"
    },
    {
      "bufferView": 1,
      "byteOffset": 5504688,
      "componentType": 5126,
      "count": 65532,
      "max": [
        0.9997525811195374,
        0.9999939203262329,
        0.9999996423721313
      ],
      "min": [
        -0.999986469745636,
        -0.9999971389770508,
        -0.9999175667762756
      ],
      "type": "VEC3"
    },
    {
      "bufferView": 0,
      "byteOffset": 4191384,
      "componentType": 5125,
      "count": 328116,
      "type": "SCALAR"
    },
    {
      "bufferView": 1,
      "byteOffset": 6291072,
      "componentType": 5126,
      "count": 65532,
      "max": [
        0.9052388072013855,
        -0.09673702716827393,
        0.7553292512893677
      ],
      "min": [
        -0.9043786525726318,
        -1.032387137413025,
        -0.9645478129386902
      ],
      "type": "VEC3"
    },
    {
      "bufferView": 1,
      "byteOffset": 7077456,
      "componentType": 5126,
      "count": 65532,
      "max": [
        0.9999926090240479,
        0.9999766945838928,
        0.999968945980072
      ],
      "min": [
        -0.9999926090240479,
        -0.9999891519546509,
        -0.9996428489685059
      ],
      "type": "VEC3"
    },
    {
      "bufferView": 0,
      "byteOffset": 5503848,
      "componentType": 5125,
      "count": 339306,
      "type": "SCALAR"
    },
    {
      "bufferView": 1,
      "byteOffset": 7863840,
      "componentType": 5126,
      "count": 33976,
      "max": [
        0.9213641881942749,
        -0.09710544347763062,
        0.7549159526824951
      ],
      "min": [
        -0.9233917593955994,
        -1.0285606384277344,
        -0.9644719958305359
      ],
      "type": "VEC3"
    },
    {
      "bufferView": 1,
      "byteOffset": 8271552,
      "componentType": 5126,
      "count": 33976,
      "max": [
        0.99988853931427,
        0.9999343752861023,
        0.9999992847442627
      ],
      "min": [
        -0.9999536871910095,
        -0.9999694228172302,
        -0.9999301433563232
      ],
      "type": "VEC3"
    },
    {
      "bufferView": 0,
      "byteOffset": 6861072,
      "componentType": 5125,
      "count": 89715,
      "type": "SCALAR"
    }
  ],
  "asset": {
    "extras": {
      "author": "Petread (https://sketchfab.com/petread)",
      "license": "CC-BY-4.0 (http://creativecommons.org/licenses/by/4.0/)",
      "source": "https://sketchfab.com/3d-models/mask-f3923ec713ea43168d645e4dcc7b5fa3",
      "title": "Mask"
    },
    "generator": "Sketchfab-12.68.0",
    "version": "2.0"
  },
  "bufferViews": [
    {
      "buffer": 0,
      "byteLength": 7219932,
      "name": "floatBufferViews",
      "target": 34963
    },
    {
      "buffer": 0,
      "byteLength": 8679264,
      "byteOffset": 7219932,
      "byteStride": 12,
      "name": "floatBufferViews",
      "target": 34962
    }
  ],
  "buffers": [
    {
      "byteLength": 15899196,
      "uri": "scene.bin"
    }
  ],
  "materials": [
    {
      "doubleSided": true,
      "name": "PolySphere6",
      "pbrMetallicRoughness": {
        "baseColorFactor": [
          0.7672256097560975,
          0.7672256097560975,
          0.7672256097560975,
          1.0
        ],
        "metallicFactor": 0.0
      }
    }
  ],
  "meshes": [
    {
      "name": "Object_0",
      "primitives": [
        {
          "attributes": {
            "NORMAL": 1,
            "POSITION": 0
          },
          "indices": 2,
          "material": 0,
          "mode": 4
        }
      ]
    },
    {
      "name": "Object_1",
      "primitives": [
        {
          "attributes": {
            "NORMAL": 4,
            "POSITION": 3
          },
          "indices": 5,
          "material": 0,
          "mode": 4
        }
      ]
    },
    {
      "name": "Object_2",
      "primitives": [
        {
          "attributes": {
            "NORMAL": 7,
            "POSITION": 6
          },
          "indices": 8,
          "material": 0,
          "mode": 4
        }
      ]
    },
    {
      "name": "Object_3",
      "primitives": [
        {
          "attributes": {
            "NORMAL": 10,
            "POSITION": 9
          },
          "indices": 11,
          "material": 0,
          "mode": 4
        }
      ]
    },
    {
      "name": "Object_4",
      "primitives": [
        {
          "attributes": {
            "NORMAL": 13,
            "POSITION": 12
          },
          "indices": 14,
          "material": 0,
          "mode": 4
        }
      ]
    },
    {
      "name": "Object_5",
      "primitives": [
        {
          "attributes": {
            "NORMAL": 16,
            "POSITION": 15
          },
          "indices": 17,
          "material": 0,
          "mode": 4
        }
      ]
    }
  ],
  "nodes": [
    {
      "children": [
        1
      ],
      "matrix": [
        1.0,
        0.0,
        0.0,
        0.0,
        0.0,
        2.220446049250313e-16,
        -1.0,
        0.0,
        0.0,
        1.0,
        2.220446049250313e-16,
        0.0,
        0.0,
        0.0,
        0.0,
        1.0
      ],
      "name": "Sketchfab_model"
    },
    {
      "children": [
        2,
        3,
        4,
        5,
        6,
        7
      ],
      "name": "Corona Maske2.obj.cleaner.materialmerger.gles"
    },
    {
      "mesh": 0,
      "name": "Object_2"
    },
    {
      "mesh": 1,
      "name": "Object_3"
    },
    {
      "mesh": 2,
      "name": "Object_4"
    },
    {
      "mesh": 3,
      "name": "Object_5"
    },
    {
      "mesh": 4,
      "name": "Object_6"
    },
    {
      "mesh": 5,
      "name": "Object_7"
    }
  ],
  "scene": 0,
  "scenes": [
    {
      "name": "Sketchfab_Scene",
      "nodes": [
        0
      ]
    }
  ]
}
